<svg width="90" height="90" viewBox="0 0 90 90" fill="none" xmlns="http://www.w3.org/2000/svg">
<circle cx="1.95652" cy="1.95652" r="1.95652" fill="#212122"/>
<circle cx="9.7826" cy="1.95652" r="1.95652" fill="#212122"/>
<circle cx="17.6087" cy="1.95652" r="1.95652" fill="#212122"/>
<circle cx="25.4348" cy="1.95652" r="1.95652" fill="#212122"/>
<circle cx="33.2609" cy="1.95652" r="1.95652" fill="#212122"/>
<circle cx="41.087" cy="1.95652" r="1.95652" fill="#212122"/>
<circle cx="48.913" cy="1.95652" r="1.95652" fill="#212122"/>
<circle cx="56.7391" cy="1.95652" r="1.95652" fill="#212122"/>
<circle cx="64.5652" cy="1.95652" r="1.95652" fill="#212122"/>
<circle cx="72.3913" cy="1.95652" r="1.95652" fill="#212122"/>
<circle cx="80.2174" cy="1.95652" r="1.95652" fill="#212122"/>
<circle cx="88.0435" cy="1.95652" r="1.95652" fill="#212122"/>
<circle cx="1.95652" cy="9.7826" r="1.95652" fill="#212122"/>
<circle cx="9.7826" cy="9.7826" r="1.95652" fill="#212122"/>
<circle cx="17.6087" cy="9.7826" r="1.95652" fill="#212122"/>
<circle cx="25.4348" cy="9.7826" r="1.95652" fill="#212122"/>
<circle cx="33.2609" cy="9.7826" r="1.95652" fill="#212122"/>
<circle cx="41.087" cy="9.7826" r="1.95652" fill="#212122"/>
<circle cx="48.913" cy="9.7826" r="1.95652" fill="#212122"/>
<circle cx="56.7391" cy="9.7826" r="1.95652" fill="#212122"/>
<circle cx="64.5652" cy="9.7826" r="1.95652" fill="#212122"/>
<circle cx="72.3913" cy="9.7826" r="1.95652" fill="#212122"/>
<circle cx="79.9565" cy="9.95652" r="1.95652" fill="#212122"/>
<circle cx="88.0435" cy="9.7826" r="1.95652" fill="#212122"/>
<circle cx="1.95652" cy="17.6087" r="1.95652" fill="#212122"/>
<circle cx="9.7826" cy="17.6087" r="1.95652" fill="#212122"/>
<circle cx="17.6087" cy="17.6087" r="1.95652" fill="#212122"/>
<circle cx="25.4348" cy="17.6087" r="1.95652" fill="#212122"/>
<circle cx="33.2609" cy="17.6087" r="1.95652" fill="#212122"/>
<circle cx="41.087" cy="17.6087" r="1.95652" fill="#212122"/>
<circle cx="48.913" cy="17.6087" r="1.95652" fill="#212122"/>
<circle cx="56.7391" cy="17.6087" r="1.95652" fill="#212122"/>
<circle cx="64.5652" cy="17.6087" r="1.95652" fill="#212122"/>
<circle cx="72.3913" cy="17.6087" r="1.95652" fill="#212122"/>
<circle cx="80.2174" cy="17.6087" r="1.95652" fill="#212122"/>
<circle cx="88.0435" cy="17.6087" r="1.95652" fill="#212122"/>
<circle cx="1.95652" cy="25.4348" r="1.95652" fill="#212122"/>
<circle cx="9.7826" cy="25.4348" r="1.95652" fill="#212122"/>
<circle cx="17.6087" cy="25.4348" r="1.95652" fill="#212122"/>
<circle cx="25.4348" cy="25.4348" r="1.95652" fill="#212122"/>
<circle cx="33.2609" cy="25.4348" r="1.95652" fill="#212122"/>
<circle cx="41.087" cy="25.4348" r="1.95652" fill="#212122"/>
<circle cx="48.913" cy="25.4348" r="1.95652" fill="#212122"/>
<circle cx="56.7391" cy="25.4348" r="1.95652" fill="#212122"/>
<circle cx="64.5652" cy="25.4348" r="1.95652" fill="#212122"/>
<circle cx="72.3913" cy="25.4348" r="1.95652" fill="#212122"/>
<circle cx="80.2174" cy="25.4348" r="1.95652" fill="#212122"/>
<circle cx="88.0435" cy="25.4348" r="1.95652" fill="#212122"/>
<circle cx="1.95652" cy="33.2609" r="1.95652" fill="#212122"/>
<circle cx="9.7826" cy="33.2609" r="1.95652" fill="#212122"/>
<circle cx="17.6087" cy="33.2609" r="1.95652" fill="#212122"/>
<circle cx="25.4348" cy="33.2609" r="1.95652" fill="#212122"/>
<circle cx="33.2609" cy="33.2609" r="1.95652" fill="#212122"/>
<circle cx="41.087" cy="33.2609" r="1.95652" fill="#212122"/>
<circle cx="48.913" cy="33.2609" r="1.95652" fill="#212122"/>
<circle cx="56.7391" cy="33.2609" r="1.95652" fill="#212122"/>
<circle cx="64.5652" cy="33.2609" r="1.95652" fill="#212122"/>
<circle cx="72.3913" cy="33.2609" r="1.95652" fill="#212122"/>
<circle cx="80.2174" cy="33.2609" r="1.95652" fill="#212122"/>
<circle cx="88.0435" cy="33.2609" r="1.95652" fill="#212122"/>
<circle cx="1.95652" cy="41.087" r="1.95652" fill="#212122"/>
<circle cx="9.7826" cy="41.087" r="1.95652" fill="#212122"/>
<circle cx="17.6087" cy="41.087" r="1.95652" fill="#212122"/>
<circle cx="25.4348" cy="41.087" r="1.95652" fill="#212122"/>
<circle cx="33.2609" cy="41.087" r="1.95652" fill="#212122"/>
<circle cx="41.087" cy="41.087" r="1.95652" fill="#212122"/>
<circle cx="48.913" cy="41.087" r="1.95652" fill="#212122"/>
<circle cx="56.7391" cy="41.087" r="1.95652" fill="#212122"/>
<circle cx="64.5652" cy="41.087" r="1.95652" fill="#212122"/>
<circle cx="72.3913" cy="41.087" r="1.95652" fill="#212122"/>
<circle cx="80.2174" cy="41.087" r="1.95652" fill="#212122"/>
<circle cx="88.0435" cy="41.087" r="1.95652" fill="#212122"/>
<circle cx="1.95652" cy="48.913" r="1.95652" fill="#212122"/>
<circle cx="9.7826" cy="48.913" r="1.95652" fill="#212122"/>
<circle cx="17.6087" cy="48.913" r="1.95652" fill="#212122"/>
<circle cx="25.4348" cy="48.913" r="1.95652" fill="#212122"/>
<circle cx="33.2609" cy="48.913" r="1.95652" fill="#212122"/>
<circle cx="41.087" cy="48.913" r="1.95652" fill="#212122"/>
<circle cx="48.913" cy="48.913" r="1.95652" fill="#212122"/>
<circle cx="56.7391" cy="48.913" r="1.95652" fill="#212122"/>
<circle cx="64.5652" cy="48.913" r="1.95652" fill="#212122"/>
<circle cx="72.3913" cy="48.913" r="1.95652" fill="#212122"/>
<circle cx="80.2174" cy="48.913" r="1.95652" fill="#212122"/>
<circle cx="88.0435" cy="48.913" r="1.95652" fill="#212122"/>
<circle cx="1.95652" cy="56.7391" r="1.95652" fill="#212122"/>
<circle cx="9.7826" cy="56.7391" r="1.95652" fill="#212122"/>
<circle cx="17.6087" cy="56.7391" r="1.95652" fill="#212122"/>
<circle cx="25.4348" cy="56.7391" r="1.95652" fill="#212122"/>
<circle cx="33.2609" cy="56.7391" r="1.95652" fill="#212122"/>
<circle cx="41.087" cy="56.7391" r="1.95652" fill="#212122"/>
<circle cx="48.913" cy="56.7391" r="1.95652" fill="#212122"/>
<circle cx="56.7391" cy="56.7391" r="1.95652" fill="#212122"/>
<circle cx="64.5652" cy="56.7391" r="1.95652" fill="#212122"/>
<circle cx="72.3913" cy="56.7391" r="1.95652" fill="#212122"/>
<circle cx="80.2174" cy="56.7391" r="1.95652" fill="#212122"/>
<circle cx="88.0435" cy="56.7391" r="1.95652" fill="#212122"/>
<circle cx="1.95652" cy="64.5652" r="1.95652" fill="#212122"/>
<circle cx="9.7826" cy="64.5652" r="1.95652" fill="#212122"/>
<circle cx="17.6087" cy="64.5652" r="1.95652" fill="#212122"/>
<circle cx="25.4348" cy="64.5652" r="1.95652" fill="#212122"/>
<circle cx="33.2609" cy="64.5652" r="1.95652" fill="#212122"/>
<circle cx="41.087" cy="64.5652" r="1.95652" fill="#212122"/>
<circle cx="48.913" cy="64.5652" r="1.95652" fill="#212122"/>
<circle cx="56.7391" cy="64.5652" r="1.95652" fill="#212122"/>
<circle cx="64.5652" cy="64.5652" r="1.95652" fill="#212122"/>
<circle cx="72.3913" cy="64.5652" r="1.95652" fill="#212122"/>
<circle cx="80.2174" cy="64.5652" r="1.95652" fill="#212122"/>
<circle cx="88.0435" cy="64.5652" r="1.95652" fill="#212122"/>
<circle cx="1.95652" cy="72.3913" r="1.95652" fill="#212122"/>
<circle cx="9.7826" cy="72.3913" r="1.95652" fill="#212122"/>
<circle cx="17.6087" cy="72.3913" r="1.95652" fill="#212122"/>
<circle cx="25.4348" cy="72.3913" r="1.95652" fill="#212122"/>
<circle cx="33.2609" cy="72.3913" r="1.95652" fill="#212122"/>
<circle cx="41.087" cy="72.3913" r="1.95652" fill="#212122"/>
<circle cx="48.913" cy="72.3913" r="1.95652" fill="#212122"/>
<circle cx="56.7391" cy="72.3913" r="1.95652" fill="#212122"/>
<circle cx="64.5652" cy="72.3913" r="1.95652" fill="#212122"/>
<circle cx="72.3913" cy="72.3913" r="1.95652" fill="#212122"/>
<circle cx="80.2174" cy="72.3913" r="1.95652" fill="#212122"/>
<circle cx="88.0435" cy="72.3913" r="1.95652" fill="#212122"/>
<circle cx="1.95652" cy="80.2174" r="1.95652" fill="#212122"/>
<circle cx="9.7826" cy="80.2174" r="1.95652" fill="#212122"/>
<circle cx="17.6087" cy="80.2174" r="1.95652" fill="#212122"/>
<circle cx="25.4348" cy="80.2174" r="1.95652" fill="#212122"/>
<circle cx="33.2609" cy="80.2174" r="1.95652" fill="#212122"/>
<circle cx="41.087" cy="80.2174" r="1.95652" fill="#212122"/>
<circle cx="48.913" cy="80.2174" r="1.95652" fill="#212122"/>
<circle cx="56.7391" cy="80.2174" r="1.95652" fill="#212122"/>
<circle cx="64.5652" cy="80.2174" r="1.95652" fill="#212122"/>
<circle cx="72.3913" cy="80.2174" r="1.95652" fill="#212122"/>
<circle cx="80.2174" cy="80.2174" r="1.95652" fill="#212122"/>
<circle cx="88.0435" cy="80.2174" r="1.95652" fill="#212122"/>
<circle cx="1.95652" cy="88.0435" r="1.95652" fill="#212122"/>
<circle cx="9.7826" cy="88.0435" r="1.95652" fill="#212122"/>
<circle cx="17.6087" cy="88.0435" r="1.95652" fill="#212122"/>
<circle cx="25.4348" cy="88.0435" r="1.95652" fill="#212122"/>
<circle cx="33.2609" cy="88.0435" r="1.95652" fill="#212122"/>
<circle cx="41.087" cy="88.0435" r="1.95652" fill="#212122"/>
<circle cx="48.913" cy="88.0435" r="1.95652" fill="#212122"/>
<circle cx="56.7391" cy="88.0435" r="1.95652" fill="#212122"/>
<circle cx="64.5652" cy="88.0435" r="1.95652" fill="#212122"/>
<circle cx="72.3913" cy="88.0435" r="1.95652" fill="#212122"/>
<circle cx="80.2174" cy="88.0435" r="1.95652" fill="#212122"/>
<circle cx="88.0435" cy="88.0435" r="1.95652" fill="#212122"/>
</svg>
